<?xml version="1.0" encoding="utf-8"?>
<!-- Generator: Adobe Illustrator 26.0.1, SVG Export Plug-In . SVG Version: 6.00 Build 0)  -->
<svg version="1.1" id="Layer_1" xmlns="http://www.w3.org/2000/svg" xmlns:xlink="http://www.w3.org/1999/xlink" x="0px" y="0px"
	 viewBox="0 0 283.5 283.5" style="enable-background:new 0 0 283.5 283.5;" xml:space="preserve">
<style type="text/css">
	.st0{fill:#59C9F4;}
	.st1{fill:#FFFFFF;stroke:#000000;stroke-width:1.4173;stroke-miterlimit:10;}
	.st2{fill:#2B2C2B;}
	.st3{fill:#FED500;}
	.st4{fill:#EC145D;}
</style>
<g>
	<path class="st0" d="M98.3,153c-1.8-8.9-15.5-92.1,82.6-94.9c0.4,0,0.8-0.6,0.6-1l-2-3.2c0-0.2-0.2-0.2-0.4-0.2
		c-0.6-0.2-2.6-1-3.6-1.6c-4.8-2.6-2.8-1.6-2.8-1.6s-0.4-1-1.4-2.4c-0.6-0.8-1-1.8-1.2-2.8c-0.2-0.4-0.6-0.6-1-0.4
		c-0.6,0.2-1.8,0.4-4.2-0.6l-4-1.6c-0.2,0-0.4-0.4-0.4-0.6v-3.4c0,0,0-2.8,1.8-3.8s5.2,0.8,1.4-6.2c-2.6-4.6-2-3.6-1.2-2.4
		c0.2,0.4,1,0.4,1.2-0.2l0.6-2.4v-0.2l3.2-5.4l2.2-3.8v-0.2l0.8-3.6V10l-0.2-0.8c0-0.4-0.4-0.6-0.6-0.6H168h-1.4h-1
		c-0.2,0-0.4,0.2-0.6,0.2l-1.8,2.6v0.2l-1.6,5.4l0,0l-0.8,6l0,0l-1,4.8c0,0.2,0,0.2-0.2,0.4l-2.8,2.6c0,0,0,0-0.2,0.2l-1.8,3.2v0.2
		l-0.8,3.2c0,0.2-0.2,0.2-0.2,0.4l-2.2,1.8l0,0l-2,1.2c0,0,0,0-0.2,0c-0.2,0.2-0.8,0.6-1.6,0c-0.8-0.6-2.6-2-3.2-2.6
		c-0.2-0.2-0.4-0.2-0.4-0.2c-1.4,0.2-3.2,1.2-3.8,1.4L140,40l-2,3l0,0l-1.2,1.6l-0.2,0.2c-1,0.4-6.8,2.4-9.9-4.6c0,0,0,0,0-0.2
		l-1.6-2.2c0,0,0,0,0-0.2l-1.4-3.2c0-0.2,0-0.2,0-0.4l0.6-2.4c0,0,0.4-2,0-2.6c-0.4-0.6-1.2-2.2-1.4-2.6l0,0l-1.4-1.8l-0.2-0.2
		c-0.4-0.2-1.4-0.8-2.2-0.8c-0.8,0-1.8,0.6-2.4,0.8c-0.2,0-0.2,0.2-0.4,0.4l-0.4,1v0.2v1.2c0,0.2,0,0.2,0,0.2l0.8,1.6v0.2v2.2v1.6
		c0,0.2,0,0.2-0.2,0.4l-1.4,2.6c0,0,0,0,0,0.2l-1.4,3.2c0,0.2,0,0.2,0,0.4c0,0.6,0.4,1.8,0.8,2.6c0.4,1,1.4,6.6-2.4,6
		c-3.8-0.6-6.6-2-6.6,5.6c0,0.2,0,0.4-0.2,0.6c-1,0.8-4.6,2.8-10.1-4.8l0,0c-0.4-0.4-2.8-2.6-4.8-8.1c-2.2-5.6-5.2-7.3-7.1-6.4
		c-1.8,0.8,0.4,4.2,2.4,6.4c2.2,2,7.9,10.9,5.4,13.9c-2.4,3.2-0.6,4-4.6,4.4c-3.8,0.2-6.6,7.5-7.1,8.3c0,0,0,0,0,0.2
		c-0.8,1-11.1,16.9-8.5,36.9c2.8,20.7,10.9,32,16.7,38.9c5,6,9.1,9.1,9.9,9.9c0.2,0,0.2,0.2,0.4,0.2l0,0
		C98.1,153.6,98.5,153.4,98.3,153z"/>
	<path class="st1" d="M97.7,156.4c-0.8,0-1.4-0.2-2-0.6c-1.2-0.8-5.2-4-10.3-10.3c-6.6-7.9-14.5-19.7-17.3-40.3
		c-2.8-20.1,7.1-35.9,8.7-38.5c1-2.4,4.2-9.3,9.3-9.7c0.4,0,0.8,0,1-0.2l0,0c0.2-0.6,0.6-1.8,1.6-3.2c0.6-1.4-2.8-8.1-5.2-10.5
		c-0.8-0.8-4.6-4.6-4-8.1c0.2-1.2,1.2-2.4,2.4-2.8c3-1.2,7.5,0.2,10.7,8.1c1.8,4.8,4.2,6.8,4.2,7.1l0.4,0.4c2.6,3.8,4.4,4.4,5.2,4.4
		h0.2c0-2.2,0.6-4.8,2.2-6.2c2-1.6,4.4-1.2,6.4-0.8l0.8,0.2c0-0.6,0-1.6-0.2-2.2c-0.4-0.8-0.8-2.2-1-3.2c-0.2-0.6,0-1.4,0.2-2
		l1.8-3.6l0.8-1.2v-2.8l-0.6-1.2c-0.2-0.4-0.4-1-0.4-1.4v-1.6l0.4-1.6c0.2-0.8,0.8-1.6,1.6-2c2.2-1.2,3.2-1.2,3.6-1.2
		c1.4,0,2.8,0.6,3.8,1.2l0.4,0.2l2.2,2.8c0.2,0.2,0.8,1.8,1.2,2.2c1,1.4,0.8,3.4,0.4,4.8l-0.2,1.8l1,2.4l1.8,2.6
		c1.6,3.8,4.2,3.8,5.8,3.2l1-1.2l1.8-2.8c0.2-0.4,0.6-0.8,1.2-1c1-0.6,3-1.6,4.8-1.8c1,0,1.8,0.2,2.6,0.8c0.4,0.4,1.4,1.2,2.2,2
		l1.4-0.8l1.4-1.2l1-3.4l2-3.6l0.4-0.4l2.4-2.2l1-4.2l0.8-6.4l1.6-5.8l0.4-0.6l1.8-2.6c0.6-0.8,1.6-1.4,2.6-1.4h4
		c1.6,0,3,1.2,3.4,2.8l0.2,1.2v0.6l-0.4,3.4c0,0.4-0.2,1-0.4,1.4l-5.2,8.9l-0.6,2.4c0,0.2-0.2,0.4-0.2,0.6l0,0
		c1.8,3.2,2.8,5.6,1.8,7.7c-0.8,1.8-2.8,2-3.6,2.2c-0.2,0-0.6,0-0.6,0.2c-0.2,0.2-0.4,0.8-0.4,1.4v2l2.6,1.2c1.4,0.6,2,0.6,2,0.6
		c0.8-0.4,1.8-0.4,2.6,0c0.8,0.4,1.6,1.2,1.8,2c0.2,0.8,0.6,1.6,0.8,2c0.6,1,1,1.6,1.4,2.2c0.4,0.2,1,0.6,2,1c0.6,0.4,2.2,1,3.4,1.4
		c0.6,0.2,1.2,0.8,1.6,1.4l2,3.2c0.6,1,0.6,2.2,0,3.4c-0.6,1-1.6,1.8-2.8,1.8c-30.8,1-53.4,10.1-66.9,27
		c-19.7,24.8-14.3,58.2-13.1,64.7l0,0c0.2,1,0,2-0.6,2.8C99.7,156,98.7,156.4,97.7,156.4L97.7,156.4z M95.7,153.4L95.7,153.4
		L95.7,153.4L95.7,153.4z M94.1,53.1c0,1.4-0.2,2.8-1,3.8c-0.6,0.8-0.8,1.4-1,1.8c-1,2.4-2.2,3.2-5.6,3.6c-1.2,0-3.4,3-4.6,6.4
		l-0.4,0.6C81,70,70.9,85.3,73.5,104.2c2.6,19.1,9.9,30.2,16.1,37.7c2,2.4,3.8,4.2,5.2,5.6c-1.8-12.7-2.6-41.1,14.9-63.3
		c13.9-17.5,36.5-27.2,66.9-28.8c-0.8-0.4-1.8-0.8-2.4-1.2c-3.2-1.8-4.8-2.6-4.8-4.2c-0.2-0.2-0.2-0.4-0.4-0.6c-0.4-0.4-0.6-1-1-1.8
		c-1.2,0-2.6-0.4-4.2-1l-4-1.6c-1.2-0.6-2-1.8-2-3v-3.4c0-0.4,0-4.6,3.2-6.2c0.4-0.2,0.8-0.4,1.2-0.4c-0.2-0.4-0.4-1-0.8-1.6
		c-0.2,0.2-0.2,0.2-0.4,0.4l-2.6,2.4l-1.4,2.6l-0.8,3c-0.2,0.6-0.6,1.4-1.2,1.8l-2.6,2l-1.8,1c-1.2,1-3,1.2-4.8,0
		c-0.6-0.4-1.6-1.4-2.6-2c-0.4,0.2-1,0.4-1.6,0.6l-1.8,2.8l-1.4,1.6c-0.4,0.4-0.8,0.8-1.4,1c-3.4,1.4-10.1,1.8-13.3-5.8l-1.4-2.6
		l-1.4-3.2c-0.2-0.6-0.4-1.4-0.2-2.2l0.6-2.4c0-0.2,0-0.6,0-0.8c-0.4-0.8-1-1.8-1.2-2.2l-1-1.2c-0.2-0.2-0.4-0.2-0.6-0.2
		c0,0-0.2,0-0.4,0.2v0.2l0.6,1.2c0.2,0.4,0.4,1,0.4,1.6v3.8c0,0.8-0.2,1.4-0.6,2l-1.2,1.6l-1.2,2.4c0.2,0.6,0.2,1,0.4,1.2
		c0.6,1.2,1.4,5.4-0.4,8.1c-1.2,1.6-2.8,2.2-5,1.8l-1.2-0.2c-0.6-0.2-1.4-0.2-2-0.2c-0.2,0.4-0.4,1.2-0.4,3.2c0,1-0.4,2-1.2,2.6
		c-0.8,0.6-2.6,1.8-5,1.4C99.1,57.5,96.7,55.9,94.1,53.1z M177.3,55.1L177.3,55.1L177.3,55.1z M102.5,53.9L102.5,53.9L102.5,53.9z
		 M134.5,43.2L134.5,43.2L134.5,43.2z M142.2,42L142.2,42L142.2,42z M116.2,39.2L116.2,39.2L116.2,39.2z M151.9,36.4L151.9,36.4
		L151.9,36.4z M125.7,33.7L125.7,33.7L125.7,33.7z M113.6,29.9L113.6,29.9L113.6,29.9z M156.9,27.7L156.9,27.7L156.9,27.7z
		 M117.4,27.3L117.4,27.3L117.4,27.3z M118.4,26.1L118.4,26.1L118.4,26.1z M164.2,17.8v0.6l3.2-5.4l0.2-1.4h-1l-1,1.4L164.2,17.8z
		 M167.2,13.2C167.2,13.2,167.2,13.4,167.2,13.2L167.2,13.2z M165.6,11.6L165.6,11.6L165.6,11.6z M169.6,11.4L169.6,11.4L169.6,11.4
		z M167.6,9.8L167.6,9.8L167.6,9.8z"/>
</g>
<g>
	<path class="st2" d="M152.5,182.4c-8.9,1.6-92.1,14.9-94.3-83.2c0-0.4-0.6-0.8-1-0.6l-3.2,2c-0.2,0-0.2,0.2-0.2,0.4
		c-0.2,0.6-1.2,2.6-1.6,3.6c-2.6,4.8-1.6,2.8-1.6,2.8s-1,0.4-2.4,1.4c-0.8,0.6-2,1-2.8,1.2c-0.4,0.2-0.6,0.6-0.4,1
		c0.2,0.6,0.4,1.8-0.6,4l-1.6,3.8c-0.2,0.2-0.4,0.4-0.6,0.4h-3.4c0,0-2.8,0-3.8-1.8c-1-1.8-0.2-6.6-6.2-1.4c-1.4,1.2-1.8,1.4-2.2,1
		c-0.4-0.4-1-0.8-1.6-1l-1.2-0.8h-0.2l-5.4-3.2l-3.6-2.2h-0.2l-3.4-0.4h-0.2H9.3c-0.4,0-0.6,0.4-0.6,0.6v1.6v1.4v1
		c0,0.2,0.2,0.4,0.2,0.6l2.8,1.8h0.2l5.4,1.6l0,0l6,0.8l0,0l4.8,1c0.2,0,0.2,0,0.4,0.2l2.6,2.8c0,0,0,0,0.2,0.2l3.2,1.8h0.2l3.2,0.8
		c0.2,0,0.2,0.2,0.4,0.2l1.8,2.2l0,0l1.2,2c0,0,0,0,0,0.2c0.2,0.2,0.6,0.8,0,1.6c-0.6,0.8-2.2,2.6-2.6,3.2c-0.2,0.2-0.2,0.4-0.2,0.4
		c0.2,1.4,1,3.2,1.4,3.8l0.2,0.2l3,2l0,0l1.6,1.2l0.2,0.2c0.4,1,2.4,7.1-4.6,9.9c0,0,0,0-0.2,0l-2.2,1.6c0,0,0,0-0.2,0l-3.2,1.4
		c-0.2,0-0.2,0-0.4,0l-2.4-0.6c0,0-1.8-0.4-2.6,0c-0.6,0.4-2.2,1.2-2.6,1.4l0,0l-1.8,2l-0.2,0.2c-0.2,0.4-0.8,1.4-0.8,2.2
		c0,0.8,0.6,1.8,0.8,2.4c0,0.2,0.2,0.2,0.4,0.4l1,0.4h0.2h1.2c0.2,0,0.2,0,0.2,0l1.6-0.8h0.2h2.2h1.6c0.2,0,0.2,0,0.4,0.2l1.6,1.2
		l0,0l3,1.6c0.2,0,0.2,0,0.4,0c0.6,0,1.8-0.4,2.6-0.8c1-0.4,6.6-1.2,6,2.6c-0.6,3.8-2,6.6,5.4,6.6c0.2,0,0.4,0,0.6,0.2
		c0.8,1,2.8,4.6-4.8,10.1l0,0c-0.4,0.4-2.8,2.8-8.1,4.8c-5.6,2.2-7.3,5-6.6,7.1c0.8,1.8,4.2-0.2,6.4-2.4c2.2-2.2,10.9-7.9,14.1-5.4
		c3.2,2.4,4,0.6,4.4,4.6c0.2,3.8,7.5,6.6,8.1,7.1c0,0,0,0,0.2,0c1,0.8,16.7,11.3,36.7,8.7c20.7-2.6,32.2-10.7,39.1-16.3
		c6-5,9.3-8.9,9.9-9.9c0-0.2,0.2-0.2,0.2-0.4l0,0C153.1,182.6,152.9,182.2,152.5,182.4z"/>
	<path class="st1" d="M97.7,212.6c-16.9,0-29.4-7.9-31.6-9.5c-2.6-1-9.3-4.2-9.7-9.3c0-0.4,0-0.8-0.2-1l0,0c-0.6-0.2-1.8-0.8-3-1.8
		c-1.6-0.6-8.1,2.8-10.5,5c-0.8,0.8-4.6,4.6-8.1,3.8c-1.2-0.2-2.2-1.2-2.8-2.4c-0.8-2-0.2-4.2,1.4-6c1.4-1.8,3.8-3.2,6.8-4.4
		c4.8-1.8,6.8-4,7.1-4.2l0.6-0.4c3.6-2.6,4.2-4.4,4.4-5v-0.2c-2.2-0.2-4.8-0.6-6.2-2.4c-1.6-2-1.2-4.4-0.8-6.4l0.2-0.8
		c-0.6-0.2-1.6,0-2.2,0.2c-0.8,0.4-2.2,0.8-3.2,1c-0.6,0.2-1.4,0-2-0.2l-3.8-1.6l-1.2-0.8H30l-1.2,0.6c-0.4,0.2-1,0.4-1.4,0.4h-1.6
		l-1.8-0.6c-0.8-0.2-1.6-0.8-2-1.6c-1.2-2.2-1.2-3.2-1.2-3.6c0-1.4,0.6-2.8,1.2-3.8l0.2-0.4l2.8-2.2c0.2-0.2,1.6-0.8,2.2-1.2
		c1.4-1,3.4-0.8,4.8-0.4l1.8,0.4l2.4-1l2.8-1.8c3.8-1.6,3.8-4.2,3.2-5.8l-0.8-0.8l-2.8-1.8c-0.4-0.4-0.8-0.8-1-1.2
		c-0.6-1-1.6-3-1.6-4.8c0-1,0.2-1.8,0.8-2.6c0.4-0.4,1.2-1.4,2-2.2l-0.8-1.4l-1.2-1.4l-3.4-1l-3.6-2l-0.4-0.4l-2.2-2.4l-4.2-1
		l-6.4-1l-5.6-1.6l-0.6-0.4l-2.6-1.8c-0.8-0.6-1.4-1.6-1.4-2.6v-4c0-1.6,1.2-3,2.8-3.4l1-0.4h0.6l3.4,0.4c0.4,0,1,0.2,1.4,0.4
		l10.3,6c0.4,0.2,0.6,0.2,0.8,0.4l0,0c2.2-2,4.6-3.6,7.1-3c2.2,0.8,2.8,3,3,4.2c0,0.4,0.2,0.6,0.2,0.8c0.2,0.2,0.8,0.4,1.4,0.4h2
		l1.2-2.6c0.6-1.4,0.6-2,0.6-2c-0.4-0.6-0.4-1.8,0-2.6c0.4-0.8,1.2-1.6,2-1.8c0.8-0.2,1.6-0.6,2-0.8c1-0.6,1.6-1,2.2-1.4
		c0.2-0.4,0.6-1,1-2c0.2-0.6,0.8-1.8,1.6-3.2c0.2-0.6,0.8-1.2,1.4-1.6l3.2-2c1-0.6,2.4-0.6,3.4,0s1.6,1.6,1.8,2.8
		c0.6,30.8,9.7,53.4,26.4,67.1c24.6,19.9,58.2,14.9,64.7,13.7l0,0c1-0.2,2,0,2.8,0.8c0.8,0.6,1.2,1.6,1.2,2.6c0,0.8-0.2,1.4-0.6,2
		c-0.8,1.2-4,5.2-10.3,10.3c-8.1,6.4-19.7,14.3-40.5,16.9C102.1,212.6,99.9,212.6,97.7,212.6z M52.8,185.8c1.4,0,2.6,0.4,3.6,1.2
		c0.8,0.6,1.4,0.8,1.8,1c2.4,1,3.2,2.4,3.6,5.6c0,1.2,3,3.4,6.4,4.6l0.6,0.4c0.6,0.4,15.7,10.7,34.8,8.3
		c19.3-2.4,30.2-9.7,37.7-15.7c2.4-2,4.2-3.6,5.8-5.2c-12.9,1.4-41.3,2.2-63.5-15.7c-17.3-14.1-27-36.7-28.4-67.3
		c-0.4,0.8-0.8,1.8-1.2,2.4c-1.8,3.2-2.6,4.8-4.2,4.8c-0.2,0.2-0.4,0.2-0.6,0.4c-0.4,0.4-1,0.6-1.8,1c0,1.2-0.4,2.6-1,4.2l-1.6,3.8
		c-0.6,1.2-1.8,2-3,2h-3.4c-0.6,0-4.6,0-6.2-3.4c-0.2-0.6-0.4-1.2-0.6-1.6c-0.4,0.2-0.8,0.6-1.4,1.2c0,0,0,0-0.2,0
		c0.2,0.2,0.4,0.2,0.4,0.4l2.4,2.6l2.6,1.4l3,0.8c0.6,0.2,1.4,0.6,1.8,1.2l2,2.6l1,1.8c0.8,1.2,1.2,3,0,4.8c-0.4,0.6-1.4,1.6-2,2.6
		c0.2,0.4,0.4,1,0.6,1.6l2.8,2l1.6,1.2c0.4,0.4,0.8,0.8,1,1.4c1.4,3.4,1.6,10.1-5.8,13.3l-2.6,1.8l-3.2,1.4
		c-0.6,0.2-1.4,0.4-2.2,0.2l-2.4-0.6c-0.2,0-0.6,0-0.8-0.2c-0.8,0.4-1.8,1-2.2,1.2l-1.2,1c-0.2,0.2-0.2,0.4-0.2,0.6
		c0,0,0,0.2,0.2,0.4H27l1.2-0.6c0.4-0.2,1-0.4,1.4-0.4h3.8c0.8,0,1.4,0.2,2,0.6l1.6,1.2l2.4,1.2c0.6-0.2,1-0.2,1.2-0.4
		c1.2-0.6,5.4-1.4,8.1,0.4c1.6,1.2,2.2,3,1.8,5l-0.2,1.2c-0.2,0.6-0.2,1.4-0.2,1.8c0.4,0.2,1.4,0.4,3.2,0.4c1,0,2,0.4,2.6,1.2
		c0.6,0.8,1.6,2.6,1.4,5c-0.4,2.4-2,5-4.8,7.5C52.6,185.8,52.8,185.8,52.8,185.8z M53.4,177.6L53.4,177.6L53.4,177.6z M51.8,176.8
		L51.8,176.8L51.8,176.8z M38.9,163.7C38.9,163.7,38.7,163.7,38.9,163.7C38.7,163.7,38.9,163.7,38.9,163.7z M30.6,158.2L30.6,158.2
		L30.6,158.2z M34.8,154L34.8,154L34.8,154z M36.2,128L36.2,128L36.2,128z M27.6,122.8L27.6,122.8L27.6,122.8z M39.9,117.5
		C39.9,117.5,39.9,117.7,39.9,117.5L39.9,117.5z M41.9,116.3L41.9,116.3L41.9,116.3z M17.7,115.5h0.6l-5.4-3.2l-1.4-0.2v1l1.4,1
		L17.7,115.5z M9.9,112.1L9.9,112.1L9.9,112.1z M47.1,109.5L47.1,109.5L47.1,109.5z M55.2,102.8L55.2,102.8L55.2,102.8L55.2,102.8z
		 M55.4,99.2L55.4,99.2L55.4,99.2z"/>
</g>
<g>
	<path class="st3" d="M116.8,249.1c-3.8-7.1-0.6-5.2,1.4-6.2s1.8-3.8,1.8-3.8v-3.4c0-0.2-0.2-0.4-0.4-0.6l-4-1.6
		c-2.2-1-3.4-0.8-4.2-0.6c-0.4,0.2-0.8,0-1-0.4c-0.2-0.8-0.6-2-1.2-2.8c-1-1.4-1.4-2.4-1.4-2.4s2,1-2.8-1.6c-1-0.6-3-1.4-3.6-1.6
		c-0.2,0-0.2-0.2-0.4-0.2l-2-3.2c-0.2-0.4,0-1,0.6-1c98.1-2.8,84.4-86,82.6-94.9c0-0.4,0.2-0.8,0.6-0.8c0.2,0,0.2,0,0.4,0.2
		c0.8,0.6,4.8,3.8,9.9,9.9c5.6,6.8,13.9,18.3,16.7,38.9c2.6,19.9-7.7,35.7-8.5,36.9c0,0,0,0,0,0.2c-0.2,0.8-3.2,7.9-7.1,8.3
		c-4,0.4-2.4,1.2-4.6,4.4c-2.2,3.2,3.2,11.9,5.4,13.9s4.4,5.6,2.4,6.4s-4.8-0.8-7.1-6.4c-2-5.2-4.6-7.7-4.8-8.1l0,0
		c-5.4-7.7-9.1-5.4-10.1-4.8c-0.2,0.2-0.2,0.4-0.2,0.6c0,7.5-2.8,6.2-6.6,5.6c-3.8-0.6-3,5-2.4,6c0.4,0.8,0.6,2.2,0.8,2.6
		c0,0.2,0,0.2,0,0.4l-1.4,3.2c0,0,0,0,0,0.2l-1.2,1.6c0,0.2-0.2,0.2-0.2,0.4v1.6v2.2c0,0.2,0,0.2,0,0.2l0.8,1.6v0.2v1.2v0.2l-0.4,1
		c0,0.2-0.2,0.2-0.4,0.4c-0.4,0.2-1.6,0.8-2.4,0.8s-2-0.6-2.2-0.8c0,0-0.2,0-0.2-0.2l-1.4-1.8l0,0c-0.2-0.4-1-1.8-1.4-2.6
		c-0.4-0.8,0-2.6,0-2.6l0.6-2.4c0-0.2,0-0.2,0-0.4l-1.4-3.2c0,0,0,0,0-0.2l-1.6-2.2c0,0,0,0,0-0.2c-3-7.1-8.9-5-9.9-4.6l-0.2,0.2
		l-1.2,1.6l0,0l-2,3l-0.2,0.2c-0.6,0.2-2.4,1.2-3.8,1.4c-0.2,0-0.4,0-0.4-0.2c-0.6-0.6-2.4-2-3.2-2.6c-0.8-0.6-1.4-0.2-1.6,0
		c0,0,0,0-0.2,0l-2,1.2l0,0l-2.2,1.8c-0.2,0-0.2,0.2-0.2,0.4l-0.8,3.2v0.2l-1.8,3.2c0,0,0,0.2-0.2,0.2l-2.8,2.6c0,0-0.2,0.2-0.2,0.4
		l-1,4.8l0,0l-0.8,6l0,0l-1.6,5.4v0.2l-1.8,2.6c-0.2,0.2-0.4,0.2-0.6,0.2h-1h-1.4h-1.6c-0.4,0-0.6-0.2-0.6-0.6l-0.2-0.8V267l0.4-3.4
		v-0.2l2.2-3.8l3.2-5.4v-0.2l0.6-2.4c0.2-0.4,0-0.4,0.2-0.6C117.2,251.1,117,249.7,116.8,249.1z"/>
	<path class="st1" d="M112.8,273.4c-1.6,0-3-1.2-3.2-2.8l-0.2-1.2v-0.6l0.4-3.4c0-0.4,0.2-1,0.4-1.4l5.2-8.9l0.6-2.2
		c0-0.2,0-0.4,0.2-0.6v-0.2c-1.8-3.2-2.6-5.6-1.6-7.7c0.8-1.8,2.8-2,3.6-2.2c0.2,0,0.6,0,0.6-0.2c0.2-0.2,0.4-0.8,0.4-1.4v-2
		l-2.6-1.2c-1.4-0.6-2-0.6-2-0.6c-0.6,0.4-1.8,0.4-2.6,0c-0.8-0.4-1.6-1.2-1.8-2c-0.2-0.8-0.6-1.6-0.8-2c-0.6-1-1-1.6-1.4-2
		c-0.4-0.2-1-0.6-2-1c-0.6-0.2-1.8-0.8-3.4-1.4c-0.6-0.2-1.2-0.8-1.6-1.4l-2-3.2c-0.6-1-0.6-2.2,0-3.4c0.6-1,1.6-1.8,2.8-1.8
		c30.8-1,53.4-10.1,66.9-27c19.7-24.8,14.5-58.2,13.1-64.7c-0.2-1,0-2,0.6-2.8c0.6-0.8,1.6-1.2,2.6-1.2c0.8,0,1.4,0.2,2,0.6
		c1.2,0.8,5.2,4,10.3,10.3c6.6,7.9,14.5,19.7,17.1,40.3c2.6,20.1-7.1,35.9-8.7,38.5c-1,2.4-4.2,9.3-9.3,9.7c-0.4,0-0.8,0-1,0.2l0,0
		c-0.2,0.6-0.6,1.8-1.8,3.2c-0.6,1.4,2.8,8.1,5.2,10.5c0.8,0.8,4.6,4.6,4,8.1c-0.2,1.2-1.2,2.4-2.4,2.8c-2,0.8-4.2,0.4-6-1.2
		c-1.8-1.4-3.2-3.6-4.4-6.8c-1.8-4.8-4.2-6.8-4.2-7.1l-0.4-0.4c-2.6-3.8-4.4-4.4-5.2-4.4h-0.2c0,2.2-0.6,4.8-2.2,6.2
		c-2,1.6-4.4,1.2-6.4,0.8l-0.8-0.2c0,0.6,0,1.6,0.2,2.2c0.4,0.8,0.8,2.2,1,3.2c0.2,0.6,0,1.4-0.2,2l-1.8,3.6l-0.8,1.2v2.8l0.6,1.2
		c0.2,0.4,0.4,1,0.4,1.6v1.6l-0.4,1.8c-0.2,0.8-0.8,1.6-1.6,2c-2.2,1.2-3.2,1.2-3.6,1.2c-1.4,0-2.8-0.6-3.8-1.2l-0.4-0.2l-0.4-0.6
		l-1.6-2.2c-0.2-0.2-0.8-1.8-1.2-2.2c-1-1.4-0.8-3.4-0.4-4.8l0.4-1.8l-1-2.4l-1.8-2.6c-1.6-3.8-4.2-3.8-5.8-3.2l-0.8,1l-1.8,2.8
		c-0.4,0.4-0.8,0.8-1.2,1c-1,0.6-3,1.6-4.8,1.8c-1,0-1.8-0.2-2.6-0.8c-0.4-0.4-1.4-1.2-2.2-2l-1.4,0.8l-1.4,1.2l-1,3.4l-2,3.6
		l-0.4,0.4l-2.4,2.2l-1,4.2l-0.8,6.4l-1.6,5.8l-0.4,0.6l-1.8,2.6c-0.6,0.8-1.6,1.4-2.6,1.4L112.8,273.4L112.8,273.4z M112.8,267.8
		L112.8,267.8L112.8,267.8z M115,266.6l-0.2,1.4h1l1-1.4l1.4-5.4L115,266.6z M163.4,252.3c0.2,0.2,0.4,0.2,0.6,0.2
		c0,0,0.2,0,0.4-0.2v-0.2l-0.6-1.2c-0.2-0.4-0.4-1-0.4-1.4v-4c0-0.8,0.2-1.4,0.6-2l1.2-1.6l1.2-2.4c-0.2-0.6-0.2-1-0.4-1.2
		c-0.6-1.2-1.4-5.4,0.4-8.1c1.2-1.6,2.8-2.2,5-1.8l1.2,0.2c0.6,0.2,1.4,0.2,2,0.2c0.2-0.4,0.4-1.2,0.4-3.2c0-1,0.4-2,1.2-2.6
		c0.8-0.6,2.6-1.8,5-1.4s5,2,7.5,4.8c0-1.4,0.2-2.8,1-3.8c0.6-0.8,0.8-1.4,1-1.8c1-2.4,2.2-3.2,5.6-3.6c1.2,0,3.4-3,4.6-6.4l0.4-0.6
		c0.4-0.6,10.5-15.9,8.1-34.8c-2.6-19.1-9.9-30.2-16.1-37.7c-2-2.4-3.8-4.2-5.2-5.6c1.6,12.9,2.6,41.3-15.1,63.5
		c-13.9,17.5-36.5,27.2-67.1,28.8c0.8,0.4,1.8,0.8,2.4,1.2c3.2,1.8,4.8,2.6,4.8,4.2c0.2,0.2,0.2,0.4,0.4,0.6c0.4,0.4,0.6,1,1,1.8
		c1.2,0,2.6,0.4,4.2,1l4,1.6c1.2,0.6,2,1.8,2,3v3.4c0,0.4,0,4.6-3.2,6.2c-0.4,0.2-0.8,0.4-1.2,0.4c0.2,0.4,0.4,1,0.8,1.6
		c0.2-0.2,0.2-0.4,0.4-0.4l2.6-2.4l1.4-2.6l0.8-3c0.2-0.6,0.6-1.4,1.2-1.8l2.6-2l1.8-1c1.2-1,3-1.2,4.8,0c0.6,0.4,1.6,1.4,2.6,2
		c0.4-0.2,1-0.4,1.6-0.6l1.8-2.8l1.2-1.6c0.4-0.4,0.8-0.8,1.4-1c3.4-1.4,10.1-1.6,13.3,5.8l1.8,2.8l1.4,3.2c0.2,0.6,0.4,1.4,0.2,2.2
		l-0.6,2.4c0,0.2,0,0.6,0,0.8c0.4,0.8,1,1.8,1.2,2.2L163.4,252.3z M164.4,251.7L164.4,251.7L164.4,251.7z M160.9,248.5L160.9,248.5
		L160.9,248.5z M156.5,244.2L156.5,244.2L156.5,244.2z M131.3,241.8L131.3,241.8L131.3,241.8z M166.2,240.2L166.2,240.2L166.2,240.2
		z M180.1,225.5L180.1,225.5L180.1,225.5z"/>
</g>
<g>
	<path class="st4" d="M254,165.3c-7.3,3.8-5.2,0.4-6.2-1.4c-1-1.8-3.8-1.8-3.8-1.8h-3.4c-0.2,0-0.4,0.2-0.6,0.4l-1.8,3.8
		c-1,2.2-1,3.4-0.6,4c0.2,0.4,0,0.8-0.4,1c-0.8,0.2-2,0.6-2.8,1.2c-1.4,1-2.4,1.4-2.4,1.4s1-2-1.8,2.8c-0.6,1-1.4,2.8-1.6,3.6
		c0,0.2-0.2,0.2-0.2,0.4l-3.2,1.8c-0.4,0.2-1,0-1-0.6c-1.4-98.1-84.6-85.6-93.7-84c-0.4,0-0.8-0.2-0.8-0.6c0-0.2,0-0.2,0.2-0.4
		c0.6-0.8,3.8-4.8,9.9-9.7c7.1-5.6,18.5-13.5,39.1-16.1c19.9-2.4,35.7,8.3,36.7,8.9c0,0,0,0,0.2,0c0.8,0.4,7.9,3.2,8.1,7.1
		c0.2,4,1.2,2.4,4.2,4.8s11.9-3.2,14.1-5.2c2.2-2,5.6-4.2,6.4-2.4s-1,4.8-6.6,6.8c-5.2,2-7.7,4.4-8.1,4.8l0,0
		c-7.7,5.4-5.6,9.1-4.8,9.9c0.2,0.2,0.4,0.2,0.6,0.2c7.5,0,6.2,2.8,5.4,6.6c-0.6,3.8,5,3,6,2.6c0.8-0.4,2.2-0.6,2.6-0.6
		c0.2,0,0.2,0,0.4,0l3,1.6l0,0l1.6,1.2c0.2,0,0.2,0.2,0.4,0.2h1.6h2.2c0.2,0,0.2,0,0.2,0l1.6-0.8h0.2h1.2h0.2l1,0.4
		c0.2,0,0.2,0.2,0.4,0.4c0.2,0.4,0.8,1.6,0.8,2.4c0,0.8-0.6,2-0.8,2.2c0,0,0,0.2-0.2,0.2l-1.8,1.4l0,0c-0.4,0.2-2,1-2.6,1.4
		c-0.8,0.4-2.6,0-2.6,0l-2.4-0.6c-0.2,0-0.2,0-0.4,0l-3.2,1.4c0,0,0,0-0.2,0l-2.2,1.6c0,0,0,0-0.2,0c-7.1,2.8-5,8.9-4.6,9.9l0.2,0.2
		l1.6,1.2l0,0l3,2l0.2,0.2c0.2,0.6,1.2,2.4,1.4,3.8c0,0.2,0,0.4-0.2,0.4c-0.6,0.6-2,2.4-2.6,3.2c-0.6,0.8-0.2,1.4,0,1.6
		c0,0,0,0,0,0.2l1.2,2l0,0l1.8,2.2c0,0.2,0.2,0.2,0.4,0.2l3.2,0.8h0.2l3.2,1.8c0,0,0.2,0,0.2,0.2l2.6,2.8c0,0,0.2,0.2,0.4,0.2
		l4.8,1.2l0,0l6,1l0,0l5.2,1.6c0,0,0.2,0,0.2,0.2l2.4,1.8c0.2,0.2,0.2,0.4,0.2,0.6v1v1.4v1.6c0,0.4-0.2,0.6-0.6,0.6l-0.8,0.2h-0.2
		l-3.4-0.4h-0.2l-3.6-2.2l-5.4-3.2h-0.2l-2.4-0.8c-0.4-0.2-0.4,0-0.6-0.2C256,164.9,254.6,164.9,254,165.3z"/>
	<path class="st1" d="M224.8,185.2c-0.6,0-1.2-0.2-1.6-0.4c-1-0.6-1.6-1.6-1.8-2.8c-0.4-30.8-9.3-53.4-26-67.3
		c-24.6-20.1-58-15.3-64.5-14.1c-1,0.2-2,0-2.8-0.8c-0.8-0.6-1.2-1.6-1.2-2.6c0-0.8,0.2-1.4,0.6-2c0.8-1.2,4.2-5.2,10.5-10.3
		c8.1-6.4,19.9-14.1,40.5-16.7c20.1-2.4,35.9,7.5,38.3,9.3c2.4,1,9.3,4.2,9.5,9.3c0,0.4,0,0.8,0,1l0,0c0.6,0.2,1.8,0.8,3,1.8
		c1.4,0.6,8.1-2.8,10.5-5c0.8-0.8,4.8-4.6,8.1-3.8c1.2,0.2,2.2,1.2,2.8,2.4c1.2,3-0.4,7.5-8.3,10.5c-4.8,1.8-6.8,4-7.1,4.2l-0.6,0.4
		c-3.8,2.6-4.4,4.4-4.4,5v0.2c2.2,0.2,4.8,0.6,6.2,2.4c1.6,2,1.2,4.4,0.8,6.4l-0.2,0.8c0.6,0.2,1.6,0,2.2-0.2
		c0.8-0.4,2.2-0.8,3.4-0.8c0.6-0.2,1.4,0,2,0.4l3.6,1.8l1.2,0.8h2.8l1.2-0.6c0.4-0.2,1-0.4,1.6-0.4h1.6l1.8,0.6
		c0.8,0.2,1.6,0.8,2,1.6c1.2,2.2,1.2,3.2,1.2,3.6c0,1.4-0.6,2.8-1.2,3.8l-0.2,0.4l-2.8,2.2c-0.2,0.2-1.6,0.8-2.2,1.2
		c-1.4,1-3.4,0.8-4.8,0.4l-1.8-0.4l-2.4,1l-2.8,1.8c-3.8,1.6-3.8,4.2-3.4,5.8l1,1l2.8,1.8c0.4,0.4,0.8,0.8,1,1.2
		c0.6,1,1.4,3,1.6,4.8c0,1-0.2,1.8-0.8,2.6c-0.4,0.4-1.4,1.4-2,2.2l0.8,1.4l1.2,1.4l3.4,1l3.6,2l0.4,0.4l2.2,2.4l4.2,1l6.4,1
		l5.8,1.8l0.6,0.4l2.6,1.8c0.8,0.6,1.4,1.6,1.4,2.6v4.2c0,1.6-1.2,3-2.8,3.4l-1.2,0.2h-0.6l-3.4-0.4c-0.4,0-1-0.2-1.4-0.4l-8.9-5.4
		l-2.2-0.6c-0.2,0-0.4,0-0.6-0.2h-0.2c-3.4,1.8-5.6,2.6-7.7,1.6c-1.8-1-2-2.8-2.2-3.6c0-0.2,0-0.6-0.2-0.6c-0.2-0.2-0.8-0.4-1.4-0.4
		h-2l-1.2,2.6c-0.6,1.4-0.6,2-0.6,2c0.4,0.8,0.4,1.8,0,2.6s-1.2,1.6-2.2,1.8c-0.8,0.2-1.6,0.6-2,0.8c-1,0.6-1.6,1-2.2,1.4
		c-0.2,0.4-0.6,1-1,2c-0.4,0.6-1,2.2-1.6,3.2c-0.2,0.6-0.8,1.2-1.4,1.6l-3.2,1.8C226,185.2,225.4,185.2,224.8,185.2z M223.8,180.2
		L223.8,180.2L223.8,180.2z M147.2,94c14.5,0,34.8,3,51.6,16.7c17.3,14.3,26.8,36.9,28,67.3c0.4-0.8,0.8-1.8,1.2-2.4
		c1.8-3.2,2.6-4.8,4.2-4.6c0.2-0.2,0.4-0.2,0.6-0.4c0.4-0.4,1-0.6,1.8-1c0-1.2,0.4-2.6,1-4.2l1.8-3.8c0.6-1.2,1.8-2,3-2h3.4
		c0.4,0,4.6,0,6.2,3.4c0.2,0.4,0.4,0.8,0.4,1.2c0.4-0.2,1-0.4,1.6-0.8c-0.2-0.2-0.4-0.2-0.4-0.4l-2.4-2.6l-2.6-1.4l-3-0.8
		c-0.6-0.2-1.4-0.6-1.8-1.2l-2-2.6l-1-1.8c-0.8-1.2-1.2-3,0-4.8c0.4-0.6,1.4-1.8,2.2-2.6c-0.2-0.4-0.4-1-0.6-1.6l-2.8-2l-1.4-1.2
		c-0.4-0.4-0.8-0.8-1-1.4c-1.4-3.4-1.6-10.1,6-13.3l2.8-1.8l3.2-1.4c0.6-0.2,1.4-0.4,2.2-0.2l2.4,0.6c0.2,0,0.6,0,0.8,0.2
		c0.6-0.4,1.2-0.8,2.2-1.2l1.2-1c0.2-0.2,0.2-0.4,0.2-0.6c0,0,0-0.2-0.2-0.4H256l-1.2,0.6c-0.4,0.2-1,0.4-1.6,0.4h-3.8
		c-0.8,0-1.4-0.2-2-0.6l-1.6-1.2l-2.4-1.2c-0.6,0.2-1,0.2-1.2,0.4c-1.2,0.6-5.4,1.4-8.1-0.6c-1.6-1.2-2.2-3-1.8-5l0.2-1.2
		c0.2-0.6,0.4-1.4,0.4-1.8c-0.4-0.2-1.2-0.4-3.2-0.4c-1,0-2-0.4-2.6-1.2c-0.6-0.8-1.6-2.6-1.4-5c0.4-2.4,2-5,4.8-7.3
		c-1.4,0-2.8-0.2-3.8-1.2c-0.8-0.6-1.4-0.8-1.8-1c-2.4-1-3.2-2.4-3.4-5.6c0-1.2-3-3.4-6.4-4.6l-0.6-0.4c-0.6-0.4-15.7-10.7-34.8-8.5
		c-19.3,2.4-30.4,9.5-37.9,15.5c-2.4,2-4.2,3.6-5.8,5.2C138.8,94.2,142.6,94,147.2,94z M270.7,171.3L270.7,171.3L270.7,171.3z
		 M269.5,169.1l1.4,0.2v-1l-1.4-1l-5.4-1.6L269.5,169.1z M236.5,168.7L236.5,168.7L236.5,168.7z M255.8,159L255.8,159L255.8,159z
		 M254.8,158.4L254.8,158.4L254.8,158.4z M246.1,153.2L246.1,153.2L246.1,153.2z M244.9,152.4L244.9,152.4L244.9,152.4z
		 M240.1,136.5L240.1,136.5L240.1,136.5z M247.8,127.2L247.8,127.2L247.8,127.2z M255.4,119.5L255.4,119.5L255.4,119.5L255.4,119.5z
		 M252.2,115.3L252.2,115.3L252.2,115.3z M253,115.1L253,115.1L253,115.1L253,115.1z"/>
</g>
</svg>
