<?xml version="1.0" encoding="utf-8"?>
<!-- Generator: Adobe Illustrator 26.0.1, SVG Export Plug-In . SVG Version: 6.00 Build 0)  -->
<svg version="1.1" id="Layer_1" xmlns="http://www.w3.org/2000/svg" xmlns:xlink="http://www.w3.org/1999/xlink" x="0px" y="0px"
	 viewBox="0 0 144 144" style="enable-background:new 0 0 144 144;" xml:space="preserve">
<style type="text/css">
	.st0{fill:#59C9F4;}
	.st1{fill:#FFFFFF;stroke:#000000;stroke-width:1.4173;stroke-miterlimit:10;}
	.st2{fill:#2B2C2B;}
	.st3{fill:#FED500;}
	.st4{fill:#EC145D;}
</style>
<g>
	<path class="st0" d="M50.2,79.1c-0.9-4.4-7.7-45.7,41-47.1c0.2,0,0.4-0.3,0.3-0.5l-1-1.6c0-0.1-0.1-0.1-0.2-0.1
		c-0.3-0.1-1.3-0.5-1.8-0.8c-2.4-1.3-1.4-0.8-1.4-0.8s-0.2-0.5-0.7-1.2c-0.3-0.4-0.5-0.9-0.6-1.4c-0.1-0.2-0.3-0.3-0.5-0.2
		c-0.3,0.1-0.9,0.2-2.1-0.3l-2-0.8c-0.1,0-0.2-0.2-0.2-0.3l0-1.7c0,0,0-1.4,0.9-1.9c0.9-0.5,2.6,0.4,0.7-3.1c-1.3-2.3-1-1.8-0.6-1.2
		c0.1,0.2,0.5,0.2,0.6-0.1l0.3-1.2c0,0,0-0.1,0-0.1l1.6-2.7l1.1-1.9c0,0,0-0.1,0-0.1L86,8.2c0,0,0-0.1,0-0.1l-0.1-0.4
		c0-0.2-0.2-0.3-0.3-0.3l-0.8,0l-0.7,0l-0.5,0c-0.1,0-0.2,0.1-0.3,0.1l-0.9,1.3c0,0,0,0.1,0,0.1l-0.8,2.7c0,0,0,0,0,0l-0.4,3
		c0,0,0,0,0,0l-0.5,2.4c0,0.1,0,0.1-0.1,0.2l-1.4,1.3c0,0,0,0-0.1,0.1l-0.9,1.6c0,0,0,0.1,0,0.1l-0.4,1.6c0,0.1-0.1,0.1-0.1,0.2
		l-1.1,0.9c0,0,0,0,0,0l-1,0.6c0,0,0,0-0.1,0c-0.1,0.1-0.4,0.3-0.8,0c-0.4-0.3-1.3-1-1.6-1.3c-0.1-0.1-0.2-0.1-0.2-0.1
		c-0.7,0.1-1.6,0.6-1.9,0.7c0,0-0.1,0.1-0.1,0.1l-1,1.5c0,0,0,0,0,0l-0.6,0.8c0,0-0.1,0.1-0.1,0.1c-0.5,0.2-3.4,1.2-4.9-2.3
		c0,0,0,0,0-0.1l-0.8-1.1c0,0,0,0,0-0.1l-0.7-1.6c0-0.1,0-0.1,0-0.2l0.3-1.2c0,0,0.2-1,0-1.3c-0.2-0.3-0.6-1.1-0.7-1.3c0,0,0,0,0,0
		l-0.7-0.9c0,0-0.1-0.1-0.1-0.1c-0.2-0.1-0.7-0.4-1.1-0.4c-0.4,0-0.9,0.3-1.2,0.4c-0.1,0-0.1,0.1-0.2,0.2l-0.2,0.5c0,0,0,0.1,0,0.1
		l0,0.6c0,0.1,0,0.1,0,0.1l0.4,0.8c0,0,0,0.1,0,0.1l0,1.1l0,0.8c0,0.1,0,0.1-0.1,0.2L58.5,21c0,0,0,0,0,0.1l-0.7,1.6
		c0,0.1,0,0.1,0,0.2c0,0.3,0.2,0.9,0.4,1.3c0.2,0.5,0.7,3.3-1.2,3c-1.9-0.3-3.3-1-3.3,2.8c0,0.1,0,0.2-0.1,0.3
		c-0.5,0.4-2.3,1.4-5-2.4c0,0,0,0,0,0c-0.2-0.2-1.4-1.3-2.4-4c-1.1-2.8-2.6-3.6-3.5-3.2c-0.9,0.4,0.2,2.1,1.2,3.2
		c1.1,1,3.9,5.4,2.7,6.9c-1.2,1.6-0.3,2-2.3,2.2c-1.9,0.1-3.3,3.7-3.5,4.1c0,0,0,0,0,0.1c-0.4,0.5-5.5,8.4-4.2,18.3
		c1.4,10.3,5.4,15.9,8.3,19.3c2.5,3,4.5,4.5,4.9,4.9c0.1,0,0.1,0.1,0.2,0.1l0,0C50.1,79.4,50.3,79.3,50.2,79.1z"/>
	<path class="st1" d="M49.9,80.8c-0.4,0-0.7-0.1-1-0.3c-0.6-0.4-2.6-2-5.1-5.1c-3.3-3.9-7.2-9.8-8.6-20c-1.4-10,3.5-17.8,4.3-19.1
		c0.5-1.2,2.1-4.6,4.6-4.8c0.2,0,0.4,0,0.5-0.1c0,0,0,0,0,0c0.1-0.3,0.3-0.9,0.8-1.6c0.3-0.7-1.4-4-2.6-5.2c-0.4-0.4-2.3-2.3-2-4
		c0.1-0.6,0.6-1.2,1.2-1.4c1.5-0.6,3.7,0.1,5.3,4c0.9,2.4,2.1,3.4,2.1,3.5l0.2,0.2c1.3,1.9,2.2,2.2,2.6,2.2c0,0,0.1,0,0.1,0
		c0-1.1,0.3-2.4,1.1-3.1c1-0.8,2.2-0.6,3.2-0.4l0.4,0.1c0-0.3,0-0.8-0.1-1.1c-0.2-0.4-0.4-1.1-0.5-1.6c-0.1-0.3,0-0.7,0.1-1l0.9-1.8
		l0.4-0.6l0-1.4l-0.3-0.6c-0.1-0.2-0.2-0.5-0.2-0.7l0-0.8l0.2-0.8c0.1-0.4,0.4-0.8,0.8-1c1.1-0.6,1.6-0.6,1.8-0.6
		c0.7,0,1.4,0.3,1.9,0.6l0.2,0.1l1.1,1.4c0.1,0.1,0.4,0.9,0.6,1.1c0.5,0.7,0.4,1.7,0.2,2.4L64,20.2l0.5,1.2l0.9,1.3
		c0.8,1.9,2.1,1.9,2.9,1.6l0.5-0.6l0.9-1.4c0.1-0.2,0.3-0.4,0.6-0.5c0.5-0.3,1.5-0.8,2.4-0.9c0.5,0,0.9,0.1,1.3,0.4
		c0.2,0.2,0.7,0.6,1.1,1l0.7-0.4l0.7-0.6l0.5-1.7l1-1.8l0.2-0.2l1.2-1.1l0.5-2.1l0.4-3.2l0.8-2.9l0.2-0.3l0.9-1.3
		c0.3-0.4,0.8-0.7,1.3-0.7l2,0c0.8,0,1.5,0.6,1.7,1.4l0.1,0.6l0,0.3l-0.2,1.7c0,0.2-0.1,0.5-0.2,0.7l-2.6,4.4L84,16.3
		c0,0.1-0.1,0.2-0.1,0.3c0,0,0,0,0,0c0.9,1.6,1.4,2.8,0.9,3.8c-0.4,0.9-1.4,1-1.8,1.1c-0.1,0-0.3,0-0.3,0.1
		c-0.1,0.1-0.2,0.4-0.2,0.7l0,1l1.3,0.6c0.7,0.3,1,0.3,1,0.3c0.4-0.2,0.9-0.2,1.3,0c0.4,0.2,0.8,0.6,0.9,1c0.1,0.4,0.3,0.8,0.4,1
		c0.3,0.5,0.5,0.8,0.7,1.1c0.2,0.1,0.5,0.3,1,0.5c0.3,0.2,1.1,0.5,1.7,0.7c0.3,0.1,0.6,0.4,0.8,0.7l1,1.6c0.3,0.5,0.3,1.1,0,1.7
		c-0.3,0.5-0.8,0.9-1.4,0.9c-15.3,0.5-26.5,5-33.2,13.4c-9.8,12.3-7.1,28.9-6.5,32.1l0,0c0.1,0.5,0,1-0.3,1.4
		C50.9,80.6,50.4,80.8,49.9,80.8C49.9,80.8,49.9,80.8,49.9,80.8z M48.9,79.3C48.9,79.3,48.9,79.3,48.9,79.3L48.9,79.3
		C48.9,79.3,48.9,79.3,48.9,79.3z M48.1,29.5c0,0.7-0.1,1.4-0.5,1.9c-0.3,0.4-0.4,0.7-0.5,0.9c-0.5,1.2-1.1,1.6-2.8,1.8
		c-0.6,0-1.7,1.5-2.3,3.2l-0.2,0.3c-0.2,0.3-5.2,7.9-3.9,17.3c1.3,9.5,4.9,15,8,18.7c1,1.2,1.9,2.1,2.6,2.8
		C47.6,70.1,47.2,56,55.9,45c6.9-8.7,18.1-13.5,33.2-14.3c-0.4-0.2-0.9-0.4-1.2-0.6c-1.6-0.9-2.4-1.3-2.4-2.1
		c-0.1-0.1-0.1-0.2-0.2-0.3c-0.2-0.2-0.3-0.5-0.5-0.9c-0.6,0-1.3-0.2-2.1-0.5l-2-0.8c-0.6-0.3-1-0.9-1-1.5l0-1.7
		c0-0.2,0-2.3,1.6-3.1c0.2-0.1,0.4-0.2,0.6-0.2c-0.1-0.2-0.2-0.5-0.4-0.8c-0.1,0.1-0.1,0.1-0.2,0.2l-1.3,1.2l-0.7,1.3l-0.4,1.5
		c-0.1,0.3-0.3,0.7-0.6,0.9l-1.3,1l-0.9,0.5c-0.6,0.5-1.5,0.6-2.4,0c-0.3-0.2-0.8-0.7-1.3-1c-0.2,0.1-0.5,0.2-0.8,0.3l-0.9,1.4
		l-0.7,0.8c-0.2,0.2-0.4,0.4-0.7,0.5c-1.7,0.7-5,0.9-6.6-2.9L62,22.6L61.3,21c-0.1-0.3-0.2-0.7-0.1-1.1l0.3-1.2c0-0.1,0-0.3,0-0.4
		c-0.2-0.4-0.5-0.9-0.6-1.1l-0.5-0.6c-0.1-0.1-0.2-0.1-0.3-0.1c0,0-0.1,0-0.2,0.1l0,0.1l0.3,0.6c0.1,0.2,0.2,0.5,0.2,0.8l0,1.9
		c0,0.4-0.1,0.7-0.3,1l-0.6,0.8l-0.6,1.2c0.1,0.3,0.1,0.5,0.2,0.6c0.3,0.6,0.7,2.7-0.2,4c-0.6,0.8-1.4,1.1-2.5,0.9l-0.6-0.1
		c-0.3-0.1-0.7-0.1-1-0.1c-0.1,0.2-0.2,0.6-0.2,1.6c0,0.5-0.2,1-0.6,1.3c-0.4,0.3-1.3,0.9-2.5,0.7C50.6,31.7,49.4,30.9,48.1,29.5z
		 M89.4,30.5C89.4,30.5,89.4,30.5,89.4,30.5L89.4,30.5z M52.3,29.9C52.3,29.9,52.3,29.9,52.3,29.9C52.3,29.9,52.3,29.9,52.3,29.9z
		 M68.2,24.6C68.2,24.6,68.2,24.6,68.2,24.6L68.2,24.6z M72,24L72,24C72,24,72,24,72,24z M59.1,22.6C59.1,22.6,59.1,22.6,59.1,22.6
		C59.1,22.6,59.1,22.6,59.1,22.6z M76.8,21.2C76.8,21.2,76.8,21.2,76.8,21.2L76.8,21.2z M63.8,19.9L63.8,19.9
		C63.8,19.9,63.8,19.9,63.8,19.9z M57.8,18C57.8,18,57.8,18,57.8,18L57.8,18z M79.3,16.9C79.3,16.9,79.3,16.9,79.3,16.9L79.3,16.9z
		 M59.7,16.7C59.7,16.7,59.7,16.7,59.7,16.7C59.7,16.7,59.7,16.7,59.7,16.7z M60.2,16.1L60.2,16.1C60.2,16.1,60.2,16.1,60.2,16.1z
		 M82.9,12l0,0.3l1.6-2.7l0.1-0.7l-0.5,0l-0.5,0.7L82.9,12z M84.4,9.7C84.4,9.7,84.4,9.8,84.4,9.7L84.4,9.7z M83.6,8.9L83.6,8.9
		C83.6,8.9,83.6,8.9,83.6,8.9z M85.6,8.8L85.6,8.8C85.6,8.8,85.6,8.8,85.6,8.8z M84.6,8C84.6,8,84.6,8,84.6,8L84.6,8z"/>
</g>
<g>
	<path class="st2" d="M77.1,93.7c-4.4,0.8-45.7,7.4-46.8-41.3c0-0.2-0.3-0.4-0.5-0.3l-1.6,1c-0.1,0-0.1,0.1-0.1,0.2
		c-0.1,0.3-0.6,1.3-0.8,1.8c-1.3,2.4-0.8,1.4-0.8,1.4s-0.5,0.2-1.2,0.7c-0.4,0.3-1,0.5-1.4,0.6c-0.2,0.1-0.3,0.3-0.2,0.5
		c0.1,0.3,0.2,0.9-0.3,2l-0.8,1.9c-0.1,0.1-0.2,0.2-0.3,0.2l-1.7,0c0,0-1.4,0-1.9-0.9c-0.5-0.9-0.1-3.3-3.1-0.7
		c-0.7,0.6-0.9,0.7-1.1,0.5c-0.2-0.2-0.5-0.4-0.8-0.5l-0.6-0.4c0,0-0.1,0-0.1,0l-2.7-1.6l-1.8-1.1c0,0-0.1,0-0.1,0l-1.7-0.2
		c0,0-0.1,0-0.1,0L6,57.5c-0.2,0-0.3,0.2-0.3,0.3l0,0.8l0,0.7l0,0.5c0,0.1,0.1,0.2,0.1,0.3L7.2,61c0,0,0.1,0,0.1,0l2.7,0.8
		c0,0,0,0,0,0l3,0.4c0,0,0,0,0,0l2.4,0.5c0.1,0,0.1,0,0.2,0.1l1.3,1.4c0,0,0,0,0.1,0.1l1.6,0.9c0,0,0.1,0,0.1,0l1.6,0.4
		c0.1,0,0.1,0.1,0.2,0.1l0.9,1.1c0,0,0,0,0,0l0.6,1c0,0,0,0,0,0.1c0.1,0.1,0.3,0.4,0,0.8c-0.3,0.4-1.1,1.3-1.3,1.6
		c-0.1,0.1-0.1,0.2-0.1,0.2c0.1,0.7,0.5,1.6,0.7,1.9c0,0,0.1,0.1,0.1,0.1l1.5,1c0,0,0,0,0,0l0.8,0.6c0,0,0.1,0.1,0.1,0.1
		c0.2,0.5,1.2,3.5-2.3,4.9c0,0,0,0-0.1,0l-1.1,0.8c0,0,0,0-0.1,0l-1.6,0.7c-0.1,0-0.1,0-0.2,0l-1.2-0.3c0,0-0.9-0.2-1.3,0
		c-0.3,0.2-1.1,0.6-1.3,0.7c0,0,0,0,0,0L13.7,82c0,0-0.1,0.1-0.1,0.1c-0.1,0.2-0.4,0.7-0.4,1.1c0,0.4,0.3,0.9,0.4,1.2
		c0,0.1,0.1,0.1,0.2,0.2l0.5,0.2c0,0,0.1,0,0.1,0l0.6,0c0.1,0,0.1,0,0.1,0l0.8-0.4c0,0,0.1,0,0.1,0l1.1,0l0.8,0c0.1,0,0.1,0,0.2,0.1
		l0.8,0.6c0,0,0,0,0,0l1.5,0.8c0.1,0,0.1,0,0.2,0c0.3,0,0.9-0.2,1.3-0.4c0.5-0.2,3.3-0.6,3,1.3c-0.3,1.9-1,3.3,2.7,3.3
		c0.1,0,0.2,0,0.3,0.1c0.4,0.5,1.4,2.3-2.4,5c0,0,0,0,0,0c-0.2,0.2-1.4,1.4-4,2.4c-2.8,1.1-3.6,2.5-3.3,3.5c0.4,0.9,2.1-0.1,3.2-1.2
		s5.4-3.9,7-2.7c1.6,1.2,2,0.3,2.2,2.3c0.1,1.9,3.7,3.3,4,3.5c0,0,0,0,0.1,0c0.5,0.4,8.3,5.6,18.2,4.3c10.3-1.3,16-5.3,19.4-8.1
		c3-2.5,4.6-4.4,4.9-4.9c0-0.1,0.1-0.1,0.1-0.2l0,0C77.4,93.8,77.3,93.6,77.1,93.7z"/>
	<path class="st1" d="M49.9,108.7c-8.4,0-14.6-3.9-15.7-4.7c-1.3-0.5-4.6-2.1-4.8-4.6c0-0.2,0-0.4-0.1-0.5c0,0,0,0,0,0
		c-0.3-0.1-0.9-0.4-1.5-0.9c-0.8-0.3-4,1.4-5.2,2.5c-0.4,0.4-2.3,2.3-4,1.9c-0.6-0.1-1.1-0.6-1.4-1.2c-0.4-1-0.1-2.1,0.7-3
		c0.7-0.9,1.9-1.6,3.4-2.2c2.4-0.9,3.4-2,3.5-2.1l0.3-0.2c1.8-1.3,2.1-2.2,2.2-2.5c0,0,0-0.1,0-0.1c-1.1-0.1-2.4-0.3-3.1-1.2
		c-0.8-1-0.6-2.2-0.4-3.2l0.1-0.4c-0.3-0.1-0.8,0-1.1,0.1c-0.4,0.2-1.1,0.4-1.6,0.5c-0.3,0.1-0.7,0-1-0.1L18.3,86l-0.6-0.4l-1.4,0
		l-0.6,0.3c-0.2,0.1-0.5,0.2-0.7,0.2l-0.8,0l-0.9-0.3c-0.4-0.1-0.8-0.4-1-0.8c-0.6-1.1-0.6-1.6-0.6-1.8c0-0.7,0.3-1.4,0.6-1.9
		l0.1-0.2l1.4-1.1c0.1-0.1,0.8-0.4,1.1-0.6c0.7-0.5,1.7-0.4,2.4-0.2l0.9,0.2l1.2-0.5l1.4-0.9c1.9-0.8,1.9-2.1,1.6-2.9L22,74.7
		l-1.4-0.9c-0.2-0.2-0.4-0.4-0.5-0.6c-0.3-0.5-0.8-1.5-0.8-2.4c0-0.5,0.1-0.9,0.4-1.3c0.2-0.2,0.6-0.7,1-1.1l-0.4-0.7l-0.6-0.7
		l-1.7-0.5l-1.8-1L16,65.3l-1.1-1.2l-2.1-0.5l-3.2-0.5l-2.8-0.8l-0.3-0.2l-1.3-0.9c-0.4-0.3-0.7-0.8-0.7-1.3l0-2
		c0-0.8,0.6-1.5,1.4-1.7L6.4,56l0.3,0l1.7,0.2c0.2,0,0.5,0.1,0.7,0.2l5.1,3c0.2,0.1,0.3,0.1,0.4,0.2c0,0,0,0,0,0
		c1.1-1,2.3-1.8,3.5-1.5c1.1,0.4,1.4,1.5,1.5,2.1c0,0.2,0.1,0.3,0.1,0.4c0.1,0.1,0.4,0.2,0.7,0.2l1,0l0.6-1.3c0.3-0.7,0.3-1,0.3-1
		c-0.2-0.3-0.2-0.9,0-1.3c0.2-0.4,0.6-0.8,1-0.9c0.4-0.1,0.8-0.3,1-0.4c0.5-0.3,0.8-0.5,1.1-0.7c0.1-0.2,0.3-0.5,0.5-1
		c0.1-0.3,0.4-0.9,0.8-1.6c0.1-0.3,0.4-0.6,0.7-0.8l1.6-1c0.5-0.3,1.2-0.3,1.7,0c0.5,0.3,0.8,0.8,0.9,1.4
		c0.3,15.3,4.8,26.5,13.1,33.3c12.2,9.9,28.9,7.4,32.1,6.8l0,0c0.5-0.1,1,0,1.4,0.4c0.4,0.3,0.6,0.8,0.6,1.3c0,0.4-0.1,0.7-0.3,1
		c-0.4,0.6-2,2.6-5.1,5.1c-4,3.2-9.8,7.1-20.1,8.4C52.1,108.7,51,108.7,49.9,108.7z M27.6,95.4c0.7,0,1.3,0.2,1.8,0.6
		c0.4,0.3,0.7,0.4,0.9,0.5c1.2,0.5,1.6,1.2,1.8,2.8c0,0.6,1.5,1.7,3.2,2.3l0.3,0.2c0.3,0.2,7.8,5.3,17.3,4.1
		c9.6-1.2,15-4.8,18.7-7.8c1.2-1,2.1-1.8,2.9-2.6C68.1,96.2,54,96.6,43,87.7c-8.6-7-13.4-18.2-14.1-33.4c-0.2,0.4-0.4,0.9-0.6,1.2
		c-0.9,1.6-1.3,2.4-2.1,2.4c-0.1,0.1-0.2,0.1-0.3,0.2c-0.2,0.2-0.5,0.3-0.9,0.5c0,0.6-0.2,1.3-0.5,2.1l-0.8,1.9
		c-0.3,0.6-0.9,1-1.5,1l-1.7,0c-0.3,0-2.3,0-3.1-1.7c-0.1-0.3-0.2-0.6-0.3-0.8c-0.2,0.1-0.4,0.3-0.7,0.6c0,0,0,0-0.1,0
		c0.1,0.1,0.2,0.1,0.2,0.2l1.2,1.3l1.3,0.7l1.5,0.4c0.3,0.1,0.7,0.3,0.9,0.6l1,1.3l0.5,0.9c0.4,0.6,0.6,1.5,0,2.4
		c-0.2,0.3-0.7,0.8-1,1.3c0.1,0.2,0.2,0.5,0.3,0.8l1.4,1l0.8,0.6c0.2,0.2,0.4,0.4,0.5,0.7c0.7,1.7,0.8,5-2.9,6.6l-1.3,0.9l-1.6,0.7
		c-0.3,0.1-0.7,0.2-1.1,0.1l-1.2-0.3c-0.1,0-0.3,0-0.4-0.1c-0.4,0.2-0.9,0.5-1.1,0.6l-0.6,0.5c-0.1,0.1-0.1,0.2-0.1,0.3
		c0,0,0,0.1,0.1,0.2l0.1,0l0.6-0.3c0.2-0.1,0.5-0.2,0.7-0.2l1.9,0c0.4,0,0.7,0.1,1,0.3l0.8,0.6l1.2,0.6c0.3-0.1,0.5-0.1,0.6-0.2
		c0.6-0.3,2.7-0.7,4,0.2c0.8,0.6,1.1,1.5,0.9,2.5l-0.1,0.6c-0.1,0.3-0.1,0.7-0.1,0.9c0.2,0.1,0.7,0.2,1.6,0.2c0.5,0,1,0.2,1.3,0.6
		c0.3,0.4,0.8,1.3,0.7,2.5c-0.2,1.2-1,2.5-2.4,3.7C27.5,95.4,27.6,95.4,27.6,95.4z M27.9,91.3C27.9,91.3,27.9,91.3,27.9,91.3
		C27.9,91.3,27.9,91.3,27.9,91.3z M27.1,90.9C27.1,90.9,27.1,90.9,27.1,90.9C27.1,90.9,27.1,90.9,27.1,90.9z M20.7,84.4
		C20.7,84.4,20.6,84.4,20.7,84.4C20.6,84.4,20.7,84.4,20.7,84.4z M16.6,81.7C16.6,81.7,16.6,81.7,16.6,81.7
		C16.6,81.7,16.6,81.7,16.6,81.7z M18.7,79.6L18.7,79.6C18.7,79.6,18.7,79.6,18.7,79.6z M19.4,66.7C19.4,66.7,19.4,66.7,19.4,66.7
		L19.4,66.7z M15.1,64.1C15.1,64.1,15.1,64.1,15.1,64.1L15.1,64.1z M21.2,61.5C21.2,61.5,21.2,61.6,21.2,61.5L21.2,61.5z M22.2,60.9
		C22.2,60.9,22.2,60.9,22.2,60.9L22.2,60.9z M10.2,60.5l0.3,0l-2.7-1.6l-0.7-0.1l0,0.5l0.7,0.5L10.2,60.5z M6.3,58.8L6.3,58.8
		C6.3,58.8,6.3,58.8,6.3,58.8z M24.8,57.5C24.8,57.5,24.8,57.5,24.8,57.5C24.8,57.5,24.8,57.5,24.8,57.5z M28.8,54.2L28.8,54.2
		C28.8,54.2,28.8,54.2,28.8,54.2L28.8,54.2z M28.9,52.4C28.9,52.4,28.9,52.4,28.9,52.4C28.9,52.4,28.9,52.4,28.9,52.4z"/>
</g>
<g>
	<path class="st3" d="M59.4,126.8c-1.9-3.5-0.3-2.6,0.7-3.1s0.9-1.9,0.9-1.9l0-1.7c0-0.1-0.1-0.2-0.2-0.3l-2-0.8
		c-1.1-0.5-1.7-0.4-2.1-0.3c-0.2,0.1-0.4,0-0.5-0.2c-0.1-0.4-0.3-1-0.6-1.4c-0.5-0.7-0.7-1.2-0.7-1.2s1,0.5-1.4-0.8
		c-0.5-0.3-1.5-0.7-1.8-0.8c-0.1,0-0.1-0.1-0.2-0.1l-1-1.6c-0.1-0.2,0-0.5,0.3-0.5c48.7-1.4,41.9-42.7,41-47.1
		c0-0.2,0.1-0.4,0.3-0.4c0.1,0,0.1,0,0.2,0.1c0.4,0.3,2.4,1.9,4.9,4.9c2.8,3.4,6.9,9.1,8.3,19.3c1.3,9.9-3.8,17.7-4.2,18.3
		c0,0,0,0,0,0.1c-0.1,0.4-1.6,3.9-3.5,4.1c-2,0.2-1.2,0.6-2.3,2.2s1.6,5.9,2.7,6.9c1.1,1,2.2,2.8,1.2,3.2s-2.4-0.4-3.5-3.2
		c-1-2.6-2.3-3.8-2.4-4c0,0,0,0,0,0c-2.7-3.8-4.5-2.7-5-2.4c-0.1,0.1-0.1,0.2-0.1,0.3c0,3.7-1.4,3.1-3.3,2.8c-1.9-0.3-1.5,2.5-1.2,3
		c0.2,0.4,0.3,1.1,0.4,1.3c0,0.1,0,0.1,0,0.2l-0.7,1.6c0,0,0,0,0,0.1l-0.6,0.8c0,0.1-0.1,0.1-0.1,0.2l0,0.8l0,1.1c0,0.1,0,0.1,0,0.1
		l0.4,0.8c0,0,0,0.1,0,0.1l0,0.6c0,0,0,0.1,0,0.1l-0.2,0.5c0,0.1-0.1,0.1-0.2,0.2c-0.2,0.1-0.8,0.4-1.2,0.4c-0.4,0-1-0.3-1.1-0.4
		c0,0-0.1,0-0.1-0.1l-0.7-0.9c0,0,0,0,0,0c-0.1-0.2-0.5-0.9-0.7-1.3c-0.2-0.4,0-1.3,0-1.3l0.3-1.2c0-0.1,0-0.1,0-0.2l-0.7-1.6
		c0,0,0,0,0-0.1l-0.8-1.1c0,0,0,0,0-0.1c-1.5-3.5-4.4-2.5-4.9-2.3c0,0-0.1,0.1-0.1,0.1l-0.6,0.8c0,0,0,0,0,0l-1,1.5
		c0,0-0.1,0.1-0.1,0.1c-0.3,0.1-1.2,0.6-1.9,0.7c-0.1,0-0.2,0-0.2-0.1c-0.3-0.3-1.2-1-1.6-1.3c-0.4-0.3-0.7-0.1-0.8,0c0,0,0,0-0.1,0
		l-1,0.6c0,0,0,0,0,0l-1.1,0.9c-0.1,0-0.1,0.1-0.1,0.2l-0.4,1.6c0,0,0,0.1,0,0.1l-0.9,1.6c0,0,0,0.1-0.1,0.1l-1.4,1.3
		c0,0-0.1,0.1-0.1,0.2l-0.5,2.4c0,0,0,0,0,0l-0.4,3c0,0,0,0,0,0l-0.8,2.7c0,0,0,0.1,0,0.1l-0.9,1.3c-0.1,0.1-0.2,0.1-0.3,0.1l-0.5,0
		l-0.7,0l-0.8,0c-0.2,0-0.3-0.1-0.3-0.3l-0.1-0.4c0,0,0-0.1,0-0.1l0.2-1.7c0,0,0-0.1,0-0.1l1.1-1.9l1.6-2.7c0,0,0-0.1,0-0.1l0.3-1.2
		c0.1-0.2,0-0.2,0.1-0.3C59.6,127.8,59.5,127.1,59.4,126.8z"/>
	<path class="st1" d="M57.4,138.9c-0.8,0-1.5-0.6-1.6-1.4l-0.1-0.6l0-0.3l0.2-1.7c0-0.2,0.1-0.5,0.2-0.7l2.6-4.4l0.3-1.1
		c0-0.1,0-0.2,0.1-0.3c0,0,0-0.1,0-0.1c-0.9-1.6-1.3-2.8-0.8-3.8c0.4-0.9,1.4-1,1.8-1.1c0.1,0,0.3,0,0.3-0.1
		c0.1-0.1,0.2-0.4,0.2-0.7l0-1l-1.3-0.6c-0.7-0.3-1-0.3-1-0.3c-0.3,0.2-0.9,0.2-1.3,0c-0.4-0.2-0.8-0.6-0.9-1
		c-0.1-0.4-0.3-0.8-0.4-1c-0.3-0.5-0.5-0.8-0.7-1c-0.2-0.1-0.5-0.3-1-0.5c-0.3-0.1-0.9-0.4-1.7-0.7c-0.3-0.1-0.6-0.4-0.8-0.7l-1-1.6
		c-0.3-0.5-0.3-1.1,0-1.7c0.3-0.5,0.8-0.9,1.4-0.9c15.3-0.5,26.5-5,33.2-13.4c9.8-12.3,7.2-28.9,6.5-32.1c-0.1-0.5,0-1,0.3-1.4
		c0.3-0.4,0.8-0.6,1.3-0.6c0.4,0,0.7,0.1,1,0.3c0.6,0.4,2.6,2,5.1,5.1c3.3,3.9,7.2,9.8,8.5,20c1.3,10-3.5,17.8-4.3,19.1
		c-0.5,1.2-2.1,4.6-4.6,4.8c-0.2,0-0.4,0-0.5,0.1c0,0,0,0,0,0c-0.1,0.3-0.3,0.9-0.9,1.6c-0.3,0.7,1.4,4,2.6,5.2c0.4,0.4,2.3,2.3,2,4
		c-0.1,0.6-0.6,1.2-1.2,1.4c-1,0.4-2.1,0.2-3-0.6c-0.9-0.7-1.6-1.8-2.2-3.4c-0.9-2.4-2.1-3.4-2.1-3.5l-0.2-0.2
		c-1.3-1.9-2.2-2.2-2.6-2.2c0,0-0.1,0-0.1,0c0,1.1-0.3,2.4-1.1,3.1c-1,0.8-2.2,0.6-3.2,0.4l-0.4-0.1c0,0.3,0,0.8,0.1,1.1
		c0.2,0.4,0.4,1.1,0.5,1.6c0.1,0.3,0,0.7-0.1,1l-0.9,1.8l-0.4,0.6l0,1.4l0.3,0.6c0.1,0.2,0.2,0.5,0.2,0.8l0,0.8l-0.2,0.9
		c-0.1,0.4-0.4,0.8-0.8,1c-1.1,0.6-1.6,0.6-1.8,0.6c-0.7,0-1.4-0.3-1.9-0.6l-0.2-0.1l-0.2-0.3l-0.8-1.1c-0.1-0.1-0.4-0.9-0.6-1.1
		c-0.5-0.7-0.4-1.7-0.2-2.4l0.2-0.9l-0.5-1.2l-0.9-1.3c-0.8-1.9-2.1-1.9-2.9-1.6l-0.4,0.5l-0.9,1.4c-0.2,0.2-0.4,0.4-0.6,0.5
		c-0.5,0.3-1.5,0.8-2.4,0.9c-0.5,0-0.9-0.1-1.3-0.4c-0.2-0.2-0.7-0.6-1.1-1l-0.7,0.4l-0.7,0.6l-0.5,1.7l-1,1.8l-0.2,0.2l-1.2,1.1
		l-0.5,2.1l-0.4,3.2l-0.8,2.9l-0.2,0.3l-0.9,1.3c-0.3,0.4-0.8,0.7-1.3,0.7L57.4,138.9C57.4,138.9,57.4,138.9,57.4,138.9z
		 M57.4,136.1C57.4,136.1,57.4,136.1,57.4,136.1L57.4,136.1z M58.5,135.5l-0.1,0.7l0.5,0l0.5-0.7l0.7-2.7L58.5,135.5z M82.5,128.4
		c0.1,0.1,0.2,0.1,0.3,0.1c0,0,0.1,0,0.2-0.1l0-0.1l-0.3-0.6c-0.1-0.2-0.2-0.5-0.2-0.7l0-2c0-0.4,0.1-0.7,0.3-1l0.6-0.8l0.6-1.2
		c-0.1-0.3-0.1-0.5-0.2-0.6c-0.3-0.6-0.7-2.7,0.2-4c0.6-0.8,1.4-1.1,2.5-0.9l0.6,0.1c0.3,0.1,0.7,0.1,1,0.1c0.1-0.2,0.2-0.6,0.2-1.6
		c0-0.5,0.2-1,0.6-1.3c0.4-0.3,1.3-0.9,2.5-0.7c1.2,0.2,2.5,1,3.7,2.4c0-0.7,0.1-1.4,0.5-1.9c0.3-0.4,0.4-0.7,0.5-0.9
		c0.5-1.2,1.1-1.6,2.8-1.8c0.6,0,1.7-1.5,2.3-3.2l0.2-0.3c0.2-0.3,5.2-7.9,4-17.3c-1.3-9.5-4.9-15-8-18.7c-1-1.2-1.9-2.1-2.6-2.8
		c0.8,6.4,1.3,20.5-7.5,31.5c-6.9,8.7-18.1,13.5-33.3,14.3c0.4,0.2,0.9,0.4,1.2,0.6c1.6,0.9,2.4,1.3,2.4,2.1
		c0.1,0.1,0.1,0.2,0.2,0.3c0.2,0.2,0.3,0.5,0.5,0.9c0.6,0,1.3,0.2,2.1,0.5l2,0.8c0.6,0.3,1,0.9,1,1.5l0,1.7c0,0.2,0,2.3-1.6,3.1
		c-0.2,0.1-0.4,0.2-0.6,0.2c0.1,0.2,0.2,0.5,0.4,0.8c0.1-0.1,0.1-0.2,0.2-0.2l1.3-1.2l0.7-1.3l0.4-1.5c0.1-0.3,0.3-0.7,0.6-0.9
		l1.3-1l0.9-0.5c0.6-0.5,1.5-0.6,2.4,0c0.3,0.2,0.8,0.7,1.3,1c0.2-0.1,0.5-0.2,0.8-0.3l0.9-1.4l0.6-0.8c0.2-0.2,0.4-0.4,0.7-0.5
		c1.7-0.7,5-0.8,6.6,2.9l0.9,1.4l0.7,1.6c0.1,0.3,0.2,0.7,0.1,1.1l-0.3,1.2c0,0.1,0,0.3,0,0.4c0.2,0.4,0.5,0.9,0.6,1.1L82.5,128.4z
		 M83,128.1C83,128.1,83,128.1,83,128.1L83,128.1z M81.3,126.5L81.3,126.5L81.3,126.5z M79.1,124.4
		C79.1,124.4,79.1,124.4,79.1,124.4L79.1,124.4z M66.6,123.2L66.6,123.2C66.6,123.2,66.6,123.2,66.6,123.2z M83.9,122.4
		C83.9,122.4,83.9,122.4,83.9,122.4C83.9,122.4,83.9,122.4,83.9,122.4z M90.8,115.1C90.8,115.1,90.8,115.1,90.8,115.1
		C90.8,115.1,90.8,115.1,90.8,115.1z"/>
</g>
<g>
	<path class="st4" d="M127.5,85.2c-3.6,1.9-2.6,0.2-3.1-0.7c-0.5-0.9-1.9-0.9-1.9-0.9l-1.7,0c-0.1,0-0.2,0.1-0.3,0.2l-0.9,1.9
		c-0.5,1.1-0.5,1.7-0.3,2c0.1,0.2,0,0.4-0.2,0.5c-0.4,0.1-1,0.3-1.4,0.6c-0.7,0.5-1.2,0.7-1.2,0.7s0.5-1-0.9,1.4
		c-0.3,0.5-0.7,1.4-0.8,1.8c0,0.1-0.1,0.1-0.1,0.2l-1.6,0.9c-0.2,0.1-0.5,0-0.5-0.3C111.9,44.8,70.6,51,66.1,51.8
		c-0.2,0-0.4-0.1-0.4-0.3c0-0.1,0-0.1,0.1-0.2c0.3-0.4,1.9-2.4,4.9-4.8c3.5-2.8,9.2-6.7,19.4-8c9.9-1.2,17.7,4.1,18.2,4.4
		c0,0,0,0,0.1,0c0.4,0.2,3.9,1.6,4,3.5c0.1,2,0.6,1.2,2.1,2.4c1.5,1.2,5.9-1.6,7-2.6s2.8-2.1,3.2-1.2c0.4,0.9-0.5,2.4-3.3,3.4
		c-2.6,1-3.8,2.2-4,2.4c0,0,0,0,0,0c-3.8,2.7-2.8,4.5-2.4,4.9c0.1,0.1,0.2,0.1,0.3,0.1c3.7,0,3.1,1.4,2.7,3.3
		c-0.3,1.9,2.5,1.5,3,1.3c0.4-0.2,1.1-0.3,1.3-0.3c0.1,0,0.1,0,0.2,0l1.5,0.8c0,0,0,0,0,0l0.8,0.6c0.1,0,0.1,0.1,0.2,0.1l0.8,0
		l1.1,0c0.1,0,0.1,0,0.1,0l0.8-0.4c0,0,0.1,0,0.1,0l0.6,0c0,0,0.1,0,0.1,0l0.5,0.2c0.1,0,0.1,0.1,0.2,0.2c0.1,0.2,0.4,0.8,0.4,1.2
		c0,0.4-0.3,1-0.4,1.1c0,0,0,0.1-0.1,0.1l-0.9,0.7c0,0,0,0,0,0c-0.2,0.1-1,0.5-1.3,0.7c-0.4,0.2-1.3,0-1.3,0l-1.2-0.3
		c-0.1,0-0.1,0-0.2,0l-1.6,0.7c0,0,0,0-0.1,0l-1.1,0.8c0,0,0,0-0.1,0c-3.5,1.4-2.5,4.4-2.3,4.9c0,0,0.1,0.1,0.1,0.1l0.8,0.6
		c0,0,0,0,0,0l1.5,1c0,0,0.1,0.1,0.1,0.1c0.1,0.3,0.6,1.2,0.7,1.9c0,0.1,0,0.2-0.1,0.2c-0.3,0.3-1,1.2-1.3,1.6
		c-0.3,0.4-0.1,0.7,0,0.8c0,0,0,0,0,0.1l0.6,1c0,0,0,0,0,0l0.9,1.1c0,0.1,0.1,0.1,0.2,0.1l1.6,0.4c0,0,0.1,0,0.1,0l1.6,0.9
		c0,0,0.1,0,0.1,0.1l1.3,1.4c0,0,0.1,0.1,0.2,0.1l2.4,0.6c0,0,0,0,0,0l3,0.5c0,0,0,0,0,0l2.6,0.8c0,0,0.1,0,0.1,0.1l1.2,0.9
		c0.1,0.1,0.1,0.2,0.1,0.3l0,0.5l0,0.7l0,0.8c0,0.2-0.1,0.3-0.3,0.3l-0.4,0.1c0,0-0.1,0-0.1,0l-1.7-0.2c0,0-0.1,0-0.1,0l-1.8-1.1
		l-2.7-1.6c0,0-0.1,0-0.1,0l-1.2-0.4c-0.2-0.1-0.2,0-0.3-0.1C128.5,85,127.8,85,127.5,85.2z"/>
	<path class="st1" d="M113,95.1c-0.3,0-0.6-0.1-0.8-0.2c-0.5-0.3-0.8-0.8-0.9-1.4c-0.2-15.3-4.6-26.5-12.9-33.4
		c-12.2-10-28.8-7.6-32-7c-0.5,0.1-1,0-1.4-0.4c-0.4-0.3-0.6-0.8-0.6-1.3c0-0.4,0.1-0.7,0.3-1c0.4-0.6,2.1-2.6,5.2-5.1
		c4-3.2,9.9-7,20.1-8.3c10-1.2,17.8,3.7,19,4.6c1.2,0.5,4.6,2.1,4.7,4.6c0,0.2,0,0.4,0,0.5c0,0,0,0,0,0c0.3,0.1,0.9,0.4,1.5,0.9
		c0.7,0.3,4-1.4,5.2-2.5c0.4-0.4,2.4-2.3,4-1.9c0.6,0.1,1.1,0.6,1.4,1.2c0.6,1.5-0.2,3.7-4.1,5.2c-2.4,0.9-3.4,2-3.5,2.1l-0.3,0.2
		c-1.9,1.3-2.2,2.2-2.2,2.5c0,0,0,0.1,0,0.1c1.1,0.1,2.4,0.3,3.1,1.2c0.8,1,0.6,2.2,0.4,3.2l-0.1,0.4c0.3,0.1,0.8,0,1.1-0.1
		c0.4-0.2,1.1-0.4,1.7-0.4c0.3-0.1,0.7,0,1,0.2l1.8,0.9l0.6,0.4l1.4,0l0.6-0.3c0.2-0.1,0.5-0.2,0.8-0.2l0.8,0l0.9,0.3
		c0.4,0.1,0.8,0.4,1,0.8c0.6,1.1,0.6,1.6,0.6,1.8c0,0.7-0.3,1.4-0.6,1.9l-0.1,0.2l-1.4,1.1c-0.1,0.1-0.8,0.4-1.1,0.6
		c-0.7,0.5-1.7,0.4-2.4,0.2l-0.9-0.2l-1.2,0.5l-1.4,0.9c-1.9,0.8-1.9,2.1-1.7,2.9l0.5,0.5l1.4,0.9c0.2,0.2,0.4,0.4,0.5,0.6
		c0.3,0.5,0.7,1.5,0.8,2.4c0,0.5-0.1,0.9-0.4,1.3c-0.2,0.2-0.7,0.7-1,1.1l0.4,0.7l0.6,0.7l1.7,0.5l1.8,1l0.2,0.2l1.1,1.2l2.1,0.5
		l3.2,0.5l2.9,0.9l0.3,0.2l1.3,0.9c0.4,0.3,0.7,0.8,0.7,1.3l0,2.1c0,0.8-0.6,1.5-1.4,1.7l-0.6,0.1l-0.3,0l-1.7-0.2
		c-0.2,0-0.5-0.1-0.7-0.2l-4.4-2.7l-1.1-0.3c-0.1,0-0.2,0-0.3-0.1c0,0-0.1,0-0.1,0c-1.7,0.9-2.8,1.3-3.8,0.8c-0.9-0.5-1-1.4-1.1-1.8
		c0-0.1,0-0.3-0.1-0.3c-0.1-0.1-0.4-0.2-0.7-0.2l-1,0l-0.6,1.3c-0.3,0.7-0.3,1-0.3,1c0.2,0.4,0.2,0.9,0,1.3
		c-0.2,0.4-0.6,0.8-1.1,0.9c-0.4,0.1-0.8,0.3-1,0.4c-0.5,0.3-0.8,0.5-1.1,0.7c-0.1,0.2-0.3,0.5-0.5,1c-0.2,0.3-0.5,1.1-0.8,1.6
		c-0.1,0.3-0.4,0.6-0.7,0.8l-1.6,0.9C113.6,95.1,113.3,95.1,113,95.1z M112.5,92.6C112.5,92.6,112.5,92.6,112.5,92.6L112.5,92.6z
		 M74.5,49.8c7.2,0,17.3,1.5,25.6,8.3c8.6,7.1,13.3,18.3,13.9,33.4c0.2-0.4,0.4-0.9,0.6-1.2c0.9-1.6,1.3-2.4,2.1-2.3
		c0.1-0.1,0.2-0.1,0.3-0.2c0.2-0.2,0.5-0.3,0.9-0.5c0-0.6,0.2-1.3,0.5-2.1l0.9-1.9c0.3-0.6,0.9-1,1.5-1l1.7,0c0.2,0,2.3,0,3.1,1.7
		c0.1,0.2,0.2,0.4,0.2,0.6c0.2-0.1,0.5-0.2,0.8-0.4c-0.1-0.1-0.2-0.1-0.2-0.2l-1.2-1.3l-1.3-0.7l-1.5-0.4c-0.3-0.1-0.7-0.3-0.9-0.6
		l-1-1.3l-0.5-0.9c-0.4-0.6-0.6-1.5,0-2.4c0.2-0.3,0.7-0.9,1.1-1.3c-0.1-0.2-0.2-0.5-0.3-0.8l-1.4-1l-0.7-0.6
		c-0.2-0.2-0.4-0.4-0.5-0.7c-0.7-1.7-0.8-5,3-6.6l1.4-0.9l1.6-0.7c0.3-0.1,0.7-0.2,1.1-0.1l1.2,0.3c0.1,0,0.3,0,0.4,0.1
		c0.3-0.2,0.6-0.4,1.1-0.6l0.6-0.5c0.1-0.1,0.1-0.2,0.1-0.3c0,0,0-0.1-0.1-0.2l-0.1,0l-0.6,0.3c-0.2,0.1-0.5,0.2-0.8,0.2l-1.9,0
		c-0.4,0-0.7-0.1-1-0.3l-0.8-0.6l-1.2-0.6c-0.3,0.1-0.5,0.1-0.6,0.2c-0.6,0.3-2.7,0.7-4-0.3c-0.8-0.6-1.1-1.5-0.9-2.5l0.1-0.6
		c0.1-0.3,0.2-0.7,0.2-0.9c-0.2-0.1-0.6-0.2-1.6-0.2c-0.5,0-1-0.2-1.3-0.6c-0.3-0.4-0.8-1.3-0.7-2.5c0.2-1.2,1-2.5,2.4-3.6
		c-0.7,0-1.4-0.1-1.9-0.6c-0.4-0.3-0.7-0.4-0.9-0.5c-1.2-0.5-1.6-1.2-1.7-2.8c0-0.6-1.5-1.7-3.2-2.3l-0.3-0.2
		c-0.3-0.2-7.8-5.3-17.3-4.2c-9.6,1.2-15.1,4.7-18.8,7.7c-1.2,1-2.1,1.8-2.9,2.6C70.3,49.9,72.2,49.8,74.5,49.8z M135.8,88.2
		C135.8,88.2,135.8,88.2,135.8,88.2L135.8,88.2z M135.2,87.1l0.7,0.1l0-0.5l-0.7-0.5l-2.7-0.8L135.2,87.1z M118.8,86.9
		C118.8,86.9,118.8,86.9,118.8,86.9C118.8,86.9,118.8,86.9,118.8,86.9z M128.4,82.1L128.4,82.1C128.4,82.1,128.4,82.1,128.4,82.1z
		 M127.9,81.8L127.9,81.8C127.9,81.8,127.9,81.8,127.9,81.8z M123.6,79.2L123.6,79.2C123.6,79.2,123.6,79.2,123.6,79.2z M123,78.8
		L123,78.8C123,78.8,123,78.8,123,78.8z M120.6,70.9C120.6,70.9,120.6,70.9,120.6,70.9C120.6,70.9,120.6,70.9,120.6,70.9z
		 M124.4,66.3C124.4,66.3,124.4,66.3,124.4,66.3L124.4,66.3z M128.2,62.5L128.2,62.5L128.2,62.5C128.2,62.5,128.2,62.5,128.2,62.5z
		 M126.6,60.4C126.6,60.4,126.6,60.4,126.6,60.4L126.6,60.4z M127,60.3C127,60.3,127,60.3,127,60.3L127,60.3L127,60.3z"/>
</g>
</svg>
